<?xml version="1.0" encoding="utf-8"?>
<!-- Generator: Adobe Illustrator 27.2.0, SVG Export Plug-In . SVG Version: 6.00 Build 0)  -->
<svg version="1.1" id="Layer_1" xmlns="http://www.w3.org/2000/svg" xmlns:xlink="http://www.w3.org/1999/xlink" x="0px" y="0px"
	 viewBox="0 0 128 128" style="enable-background:new 0 0 128 128;" xml:space="preserve">
<style type="text/css">
	.st0{fill:#5FAFB6;}
	.st1{fill:#CEE6E8;}
	.st2{fill:#F1B14F;}
	.st3{fill:#E46A5D;}
	.st4{fill:#F0A044;}
	.st5{fill:#EF903B;}
	.st6{fill:#59928E;}
	.st7{fill:#F0973E;}
	.st8{fill:#EF8836;}
	.st9{fill:#EE7B2F;}
	.st10{fill:#E35A49;}
	.st11{fill:#F5C984;}
	.st12{fill:#F5BD7C;}
	.st13{fill:#F4B276;}
	.st14{fill:#DD574B;}
	.st15{fill:#DC4A3B;}
	.st16{fill:#D6483D;}
	.st17{fill:#D53D30;}
	.st18{fill:#5AABB3;}
	.st19{fill:#31848E;}
	.st20{fill:#FFFFFF;}
	.st21{fill:#CEEAF2;}
	.st22{fill:#3194B0;}
	.st23{fill:#2B8199;}
</style>
<g>
	<path class="st0" d="M19.6,108.3C-5,83.7-5,43.8,19.6,19.2c24.6-24.6,64.5-24.6,89.1,0c24.6,24.6,24.6,64.5,0,89.1
		C84.1,132.9,44.2,132.9,19.6,108.3L19.6,108.3z"/>
	<path class="st1" d="M108.7,108.3l-0.1,0.1L108.7,108.3L108.7,108.3z M108.7,108.3L108.7,108.3L108.7,108.3L108.7,108.3z
		 M108.8,108.3L108.8,108.3L108.8,108.3L108.8,108.3z M108.8,108.2L108.8,108.2L108.8,108.2L108.8,108.2z M108.8,108.2L108.8,108.2
		L108.8,108.2L108.8,108.2z M108.9,108.1L108.9,108.1L108.9,108.1L108.9,108.1z M108.9,108.1L108.9,108.1L108.9,108.1L108.9,108.1z
		 M108.9,108.1L108.9,108.1L108.9,108.1L108.9,108.1z M109,108L109,108L109,108L109,108z M109,108L109,108L109,108L109,108z
		 M109,108L109,108L109,108L109,108z M109.1,107.9L109.1,107.9L109.1,107.9L109.1,107.9z M109.1,107.9L109.1,107.9L109.1,107.9
		L109.1,107.9z M109.1,107.9L109.1,107.9L109.1,107.9L109.1,107.9z"/>
	<path class="st2" d="M97,38.2H31.2c-3.7,0-6.6,3-6.6,6.6v21.7l2.3,2.8l0,3.2l0,17.7l0,6.6h4.3H97h4.3v-6.6l0-17.7l0-3.2l2.3-2.8
		V44.8C103.7,41.2,100.7,38.2,97,38.2L97,38.2z"/>
	<path class="st3" d="M103.7,56V44.8c0-3.7-3-6.6-6.6-6.6H31.2c-3.7,0-6.6,3-6.6,6.6V56H103.7L103.7,56z"/>
	<path class="st4" d="M81.8,69.3H50v27.5h-3.6V69.3v27.5h35.4V69.3L81.8,69.3z M81.8,57.4H50v9.1h31.8L81.8,57.4L81.8,57.4z"/>
	<path class="st5" d="M50,69.3h-3.6v27.5H50V69.3L50,69.3z M50,57.4h-3.6v9.1H50V57.4L50,57.4z"/>
	<polygon class="st6" points="24.6,66.5 24.6,66.5 26.9,69.3 26.9,69.3 	"/>
	<path class="st7" d="M46.4,66.5H24.6l2.3,2.8h19.6L46.4,66.5L46.4,66.5z M103.7,66.5H81.8v2.8h19.5L103.7,66.5L103.7,66.5z"/>
	<polygon class="st8" points="81.8,66.5 50,66.5 50,69.3 81.8,69.3 	"/>
	<polygon class="st9" points="50,66.5 46.4,66.5 46.4,69.3 50,69.3 	"/>
	<path class="st7" d="M30.3,56h-5.7v0L30.3,56L30.3,56L30.3,56z M46.4,56h-5.2v0L46.4,56L46.4,56L46.4,56z M87.4,56h-5.6v0L87.4,56
		L87.4,56L87.4,56z M103.7,54.6L103.7,54.6V56h-5.3v0h5.3V54.6L103.7,54.6z"/>
	<path class="st10" d="M30.3,54.6h-5.7V56h5.7L30.3,54.6L30.3,54.6z M87.4,54.6h-5.6V56H46.4v-1.4h-5.2V56h5.2H50h31.8h5.6
		L87.4,54.6L87.4,54.6z M103.7,54.6h-5.3V56h5.3V54.6L103.7,54.6z"/>
	<polygon class="st8" points="81.8,56 50,56 50,56 81.8,56 	"/>
	<polygon class="st9" points="50,56 46.4,56 46.4,56 50,56 	"/>
	<path class="st11" d="M30.3,56h-5.7v1.4h5.7L30.3,56L30.3,56z M46.4,56h-5.2v1.4h5.2V56L46.4,56z M87.4,56h-5.6v1.4h5.6L87.4,56
		L87.4,56z M103.7,56L103.7,56h-5.3v1.4h5.3V56L103.7,56z"/>
	<polygon class="st12" points="81.8,56 50,56 50,57.4 81.8,57.4 	"/>
	<polygon class="st13" points="50,56 46.4,56 46.4,57.4 50,57.4 	"/>
	<polygon class="st14" points="81.8,38.2 46.4,38.2 50,42.1 50,54.6 81.8,54.6 	"/>
	<polygon class="st15" points="81.8,54.6 50,54.6 50,56 46.4,56 46.4,54.6 46.4,56 81.8,56 	"/>
	<polygon class="st16" points="46.4,38.2 46.4,38.2 46.4,54.6 50,54.6 50,42.1 	"/>
	<polygon class="st17" points="50,54.6 46.4,54.6 46.4,56 50,56 	"/>
	<polygon class="st18" points="30.3,61.2 41.3,61.2 41.3,51 30.3,51 	"/>
	<polygon class="st18" points="87.4,51 87.4,61.2 98.3,61.2 98.3,51 	"/>
	<polygon class="st19" points="41.3,56 30.3,56 30.3,61.2 41.3,61.2 	"/>
	<polygon class="st19" points="98.3,56 87.4,56 87.4,61.2 98.3,61.2 	"/>
	<polygon class="st20" points="50,23.1 50,38.2 52.1,38.2 52.1,27.3 76.3,27.3 76.3,38.2 78.4,38.2 78.4,23.1 	"/>
	<rect x="52.1" y="25.5" class="st21" width="24.2" height="1.8"/>
	<path class="st20" d="M62,86.9H37.7c-1.5,3.5-5,6-9.1,6c-4,0-7.4-2.4-9-5.8h9.7l2.3-4l-2.3-4h-9.7c1.5-3.4,5-5.8,9-5.8
		c4.1,0,7.6,2.5,9.1,6H62c1.4-2.6,4.1-4.4,7.3-4.4c3.3,0,6.2,2,7.5,4.9h-8.1l-1.9,3.4l1.9,3.4h8.1c-1.3,2.9-4.2,4.9-7.5,4.9
		C66.1,91.4,63.4,89.6,62,86.9z"/>
	<path class="st21" d="M62,86.9H37.7c-1.5,3.5-5,6-9.1,6c-4,0-7.4-2.4-9-5.8h9.7l2.3-4h35l1.9,3.4h8.1c-1.3,2.9-4.2,4.9-7.5,4.9
		C66.1,91.4,63.4,89.6,62,86.9z"/>
	<path class="st22" d="M107.2,82.5l-4.3-7.5h-8.6l-4.3,7.5l4.3,7.5h8.6L107.2,82.5z M94.8,82.5c0-2.1,1.7-3.7,3.7-3.7
		s3.7,1.7,3.7,3.7c0,2.1-1.7,3.7-3.7,3.7S94.8,84.5,94.8,82.5z"/>
	<path class="st23" d="M107.2,82.5h-4.9c0,2.1-1.7,3.7-3.7,3.7s-3.7-1.7-3.7-3.7h-4.9l4.3,7.5h8.6L107.2,82.5z"/>
</g>
</svg>
